<svg width="36" height="36" viewBox="0 0 36 36" fill="none" xmlns="http://www.w3.org/2000/svg">
<circle cx="18" cy="18" r="18" fill="#0088FF"/>
<path d="M13.9048 23V21.6676L17.4396 18.2024C17.7777 17.861 18.0594 17.5578 18.2848 17.2926C18.5102 17.0275 18.6792 16.7706 18.7919 16.522C18.9046 16.2734 18.9609 16.0083 18.9609 15.7266C18.9609 15.4051 18.888 15.13 18.7422 14.9013C18.5964 14.6693 18.3958 14.4903 18.1406 14.3643C17.8854 14.2384 17.5954 14.1754 17.2706 14.1754C16.9358 14.1754 16.6425 14.245 16.3906 14.3842C16.1387 14.5201 15.9432 14.714 15.804 14.9659C15.6681 15.2178 15.6001 15.5178 15.6001 15.8658H13.8452C13.8452 15.2195 13.9927 14.6577 14.2876 14.1804C14.5826 13.7031 14.9886 13.3336 15.5057 13.0717C16.026 12.8099 16.6226 12.679 17.2955 12.679C17.9782 12.679 18.5781 12.8066 19.0952 13.0618C19.6122 13.317 20.0133 13.6667 20.2983 14.1108C20.5866 14.5549 20.7308 15.062 20.7308 15.6321C20.7308 16.0133 20.6579 16.3878 20.5121 16.7557C20.3662 17.1236 20.1094 17.5312 19.7415 17.9787C19.3769 18.4261 18.8648 18.968 18.2053 19.6044L16.4503 21.3892V21.4588H20.8849V23H13.9048Z" fill="white"/>
</svg>
