<svg width="36" height="36" viewBox="0 0 36 36" fill="none" xmlns="http://www.w3.org/2000/svg">
<circle cx="18" cy="18" r="18" fill="#0088FF"/>
<path d="M17.5589 23.1392C16.843 23.1392 16.2067 23.0166 15.6499 22.7713C15.0964 22.526 14.6589 22.1847 14.3374 21.7472C14.0159 21.3097 13.8452 20.8042 13.8253 20.2308H15.6946C15.7112 20.5059 15.8023 20.7462 15.968 20.9517C16.1338 21.1539 16.3542 21.3113 16.6293 21.424C16.9044 21.5367 17.2126 21.593 17.554 21.593C17.9186 21.593 18.2417 21.5301 18.5234 21.4041C18.8052 21.2749 19.0256 21.0959 19.1847 20.8672C19.3438 20.6385 19.4216 20.375 19.4183 20.0767C19.4216 19.7685 19.3421 19.4967 19.1797 19.2614C19.0173 19.026 18.782 18.8421 18.4737 18.7095C18.1688 18.5769 17.8009 18.5107 17.37 18.5107H16.4702V17.0888H17.37C17.7247 17.0888 18.0346 17.0275 18.2997 16.9048C18.5682 16.7822 18.7786 16.6098 18.9311 16.3878C19.0836 16.1624 19.1581 15.9022 19.1548 15.6072C19.1581 15.3189 19.0935 15.0687 18.9609 14.8565C18.8317 14.6411 18.6477 14.4737 18.4091 14.3544C18.1738 14.2351 17.897 14.1754 17.5788 14.1754C17.2673 14.1754 16.9789 14.2318 16.7138 14.3445C16.4486 14.4571 16.2348 14.6179 16.0724 14.8267C15.91 15.0322 15.8239 15.2775 15.8139 15.5625H14.0391C14.0523 14.9924 14.2164 14.492 14.5312 14.0611C14.8494 13.6269 15.2737 13.2888 15.804 13.0469C16.3343 12.8016 16.9292 12.679 17.5888 12.679C18.2682 12.679 18.8582 12.8066 19.3587 13.0618C19.8625 13.3137 20.2519 13.6534 20.527 14.081C20.8021 14.5085 20.9396 14.9808 20.9396 15.4979C20.9429 16.0713 20.7739 16.5518 20.4325 16.9396C20.0945 17.3274 19.6503 17.581 19.1001 17.7003V17.7798C19.8161 17.8793 20.3646 18.1444 20.7457 18.5753C21.1302 19.0028 21.3208 19.5348 21.3175 20.1712C21.3175 20.7412 21.1551 21.2517 20.8303 21.7024C20.5088 22.1499 20.0646 22.5012 19.4979 22.7564C18.9344 23.0116 18.2881 23.1392 17.5589 23.1392Z" fill="white"/>
</svg>
