<svg width="19" height="18" viewBox="0 0 19 18" fill="none" xmlns="http://www.w3.org/2000/svg">
<g id="backpack 1">
<g id="Group">
<g id="Vector">
<path d="M10.0579 3.16629C10.8834 3.16629 11.552 2.49741 11.552 1.67229C11.552 0.847472 10.8834 0.178711 10.0579 0.178711C9.23373 0.178711 8.56421 0.847472 8.56421 1.67229C8.56421 2.49741 9.23373 3.16629 10.0579 3.16629Z" fill="#344054"/>
<path d="M10.0579 3.16629C10.8834 3.16629 11.552 2.49741 11.552 1.67229C11.552 0.847472 10.8834 0.178711 10.0579 0.178711C9.23373 0.178711 8.56421 0.847472 8.56421 1.67229C8.56421 2.49741 9.23373 3.16629 10.0579 3.16629Z" fill="black" fill-opacity="0.2"/>
</g>
<g id="Vector_2">
<path d="M15.394 7.89987C15.394 7.47414 15.0489 7.12906 14.6231 7.12906H12.0166L10.5467 5.04201L10.5515 5.0065C10.6039 4.60783 10.4954 4.20463 10.2504 3.88578C10.0052 3.56689 9.64396 3.35853 9.24521 3.30608C8.80384 3.24857 8.3853 3.39073 8.0709 3.65721V1.92102C8.0709 1.62234 7.82875 1.37988 7.52946 1.37988H6.03006C5.73062 1.37988 5.48861 1.62234 5.48861 1.92102V8.35182C5.48861 9.13896 6.0908 9.77826 6.85807 9.85325L6.74225 10.1225L5.83411 13.5533L3.789 16.3009C3.48427 16.7108 3.56847 17.2901 3.97871 17.5951C4.1442 17.7186 4.33813 17.7782 4.53027 17.7782C4.81277 17.7782 5.0909 17.6494 5.27291 17.4054L7.42456 14.5147C7.49501 14.4202 7.54685 14.313 7.57692 14.1992L8.19605 11.8617L9.89064 13.4175L9.65937 16.79C9.62447 17.2998 10.0087 17.7412 10.5188 17.7761C10.5398 17.7777 10.5616 17.7783 10.5832 17.7783C11.0651 17.7783 11.4715 17.4045 11.5046 16.9165L11.7666 13.1001C11.7859 12.8199 11.6763 12.5455 11.4691 12.3555L9.71844 10.7485L10.251 7.29954L10.9868 8.34379C11.1315 8.54884 11.3664 8.67083 11.6168 8.67083H14.3148L14.3657 17.5126C14.3657 17.683 14.5038 17.8209 14.6741 17.8209C14.8446 17.8209 14.9824 17.683 14.9824 17.5126L14.9315 8.60452C15.2031 8.48554 15.394 8.21548 15.394 7.89987Z" fill="#344054"/>
<path d="M15.394 7.89987C15.394 7.47414 15.0489 7.12906 14.6231 7.12906H12.0166L10.5467 5.04201L10.5515 5.0065C10.6039 4.60783 10.4954 4.20463 10.2504 3.88578C10.0052 3.56689 9.64396 3.35853 9.24521 3.30608C8.80384 3.24857 8.3853 3.39073 8.0709 3.65721V1.92102C8.0709 1.62234 7.82875 1.37988 7.52946 1.37988H6.03006C5.73062 1.37988 5.48861 1.62234 5.48861 1.92102V8.35182C5.48861 9.13896 6.0908 9.77826 6.85807 9.85325L6.74225 10.1225L5.83411 13.5533L3.789 16.3009C3.48427 16.7108 3.56847 17.2901 3.97871 17.5951C4.1442 17.7186 4.33813 17.7782 4.53027 17.7782C4.81277 17.7782 5.0909 17.6494 5.27291 17.4054L7.42456 14.5147C7.49501 14.4202 7.54685 14.313 7.57692 14.1992L8.19605 11.8617L9.89064 13.4175L9.65937 16.79C9.62447 17.2998 10.0087 17.7412 10.5188 17.7761C10.5398 17.7777 10.5616 17.7783 10.5832 17.7783C11.0651 17.7783 11.4715 17.4045 11.5046 16.9165L11.7666 13.1001C11.7859 12.8199 11.6763 12.5455 11.4691 12.3555L9.71844 10.7485L10.251 7.29954L10.9868 8.34379C11.1315 8.54884 11.3664 8.67083 11.6168 8.67083H14.3148L14.3657 17.5126C14.3657 17.683 14.5038 17.8209 14.6741 17.8209C14.8446 17.8209 14.9824 17.683 14.9824 17.5126L14.9315 8.60452C15.2031 8.48554 15.394 8.21548 15.394 7.89987Z" fill="black" fill-opacity="0.2"/>
</g>
</g>
</g>
</svg>
