<svg width="19" height="18" viewBox="0 0 19 18" fill="none" xmlns="http://www.w3.org/2000/svg">
<g id="airplane">
<g id="vuesax/bold/airplane">
<g id="airplane_2">
<g id="Vector">
<path d="M15.5374 7.97242L12.0349 6.46492L11.2549 6.13492C11.1349 6.07492 11.0299 5.91742 11.0299 5.78242V3.48742C11.0299 2.76742 10.4974 1.91242 9.85242 1.58242C9.62742 1.46992 9.35742 1.46992 9.13242 1.58242C8.49492 1.91242 7.96242 2.77492 7.96242 3.49492V5.78992C7.96242 5.92492 7.85742 6.08242 7.73742 6.14242L3.46242 7.97992C2.98992 8.17492 2.60742 8.76742 2.60742 9.27742V10.2674C2.60742 10.9049 3.08742 11.2199 3.67992 10.9649L7.43742 9.34492C7.72992 9.21742 7.96992 9.37492 7.96992 9.69742V10.5299V11.8799C7.96992 12.0524 7.87242 12.2999 7.75242 12.4199L6.01242 14.1674C5.83242 14.3474 5.74992 14.6999 5.83242 14.9549L6.16992 15.9749C6.30492 16.4174 6.80742 16.6274 7.21992 16.4174L9.00492 14.9174C9.27492 14.6849 9.71742 14.6849 9.98742 14.9174L11.7724 16.4174C12.1849 16.6199 12.6874 16.4174 12.8374 15.9749L13.1749 14.9549C13.2574 14.7074 13.1749 14.3474 12.9949 14.1674L11.2549 12.4199C11.1274 12.2999 11.0299 12.0524 11.0299 11.8799V9.69742C11.0299 9.37492 11.2624 9.22492 11.5624 9.34492L15.3199 10.9649C15.9124 11.2199 16.3924 10.9049 16.3924 10.2674V9.27742C16.3924 8.76742 16.0099 8.17492 15.5374 7.97242Z" fill="#344054"/>
<path d="M15.5374 7.97242L12.0349 6.46492L11.2549 6.13492C11.1349 6.07492 11.0299 5.91742 11.0299 5.78242V3.48742C11.0299 2.76742 10.4974 1.91242 9.85242 1.58242C9.62742 1.46992 9.35742 1.46992 9.13242 1.58242C8.49492 1.91242 7.96242 2.77492 7.96242 3.49492V5.78992C7.96242 5.92492 7.85742 6.08242 7.73742 6.14242L3.46242 7.97992C2.98992 8.17492 2.60742 8.76742 2.60742 9.27742V10.2674C2.60742 10.9049 3.08742 11.2199 3.67992 10.9649L7.43742 9.34492C7.72992 9.21742 7.96992 9.37492 7.96992 9.69742V10.5299V11.8799C7.96992 12.0524 7.87242 12.2999 7.75242 12.4199L6.01242 14.1674C5.83242 14.3474 5.74992 14.6999 5.83242 14.9549L6.16992 15.9749C6.30492 16.4174 6.80742 16.6274 7.21992 16.4174L9.00492 14.9174C9.27492 14.6849 9.71742 14.6849 9.98742 14.9174L11.7724 16.4174C12.1849 16.6199 12.6874 16.4174 12.8374 15.9749L13.1749 14.9549C13.2574 14.7074 13.1749 14.3474 12.9949 14.1674L11.2549 12.4199C11.1274 12.2999 11.0299 12.0524 11.0299 11.8799V9.69742C11.0299 9.37492 11.2624 9.22492 11.5624 9.34492L15.3199 10.9649C15.9124 11.2199 16.3924 10.9049 16.3924 10.2674V9.27742C16.3924 8.76742 16.0099 8.17492 15.5374 7.97242Z" fill="black" fill-opacity="0.2"/>
</g>
</g>
</g>
</g>
</svg>
