<svg width="78" height="21" viewBox="0 0 78 21" fill="none" xmlns="http://www.w3.org/2000/svg">
<g id="Axis_Bank_logo" clip-path="url(#clip0_1091_47039)">
<g id="#ae285dff">
<path id="path5" d="M10.9814 0.990723C12.0511 2.82839 13.1301 4.66066 14.1883 6.50528C12.4779 9.52227 10.7923 12.5539 9.0241 15.5377C8.34568 16.6831 7.68578 17.8393 7.01508 18.9885C4.84013 19.0016 2.66518 19.0008 0.490234 18.9977C0.55661 18.8488 0.622213 18.699 0.702481 18.557C4.12699 12.7006 7.56461 6.85182 10.9814 0.990723Z" fill="#AE285D"/>
<path id="path7" d="M58.3077 5.5083C59.5102 7.74963 60.7119 9.99018 61.9128 12.2323C61.4891 12.2408 61.0654 12.2192 60.6424 12.2338C60.3584 11.7399 60.1122 11.2251 59.8343 10.728C58.7662 10.6964 57.6972 10.718 56.6283 10.7157C56.3705 11.2274 56.0895 11.726 55.8163 12.2284C55.3988 12.2246 54.9812 12.2369 54.5645 12.233C55.7947 9.98169 57.0288 7.73187 58.3077 5.5083ZM57.1631 9.75709C57.8917 9.76713 58.6211 9.76558 59.3504 9.77176C58.9854 9.09257 58.6566 8.39408 58.2653 7.72956C57.8902 8.4018 57.5228 9.07713 57.1631 9.75709Z" fill="#AE285D"/>
<path id="path9" d="M62.6136 5.48193C64.4289 7.05951 66.2442 8.63785 68.0371 10.2417C68.0865 8.79453 68.0309 7.34739 68.0749 5.90025C68.4631 5.90797 68.8513 5.91414 69.2396 5.92109C69.2272 8.15007 69.2334 10.3798 69.2311 12.6088C68.0386 11.617 66.8933 10.5697 65.7155 9.55939C65.0602 8.99905 64.4111 8.43255 63.7852 7.84057C63.7698 9.30623 63.7922 10.7727 63.7605 12.2383C63.3746 12.2399 62.9887 12.2298 62.6036 12.2329C62.6067 9.98234 62.5874 7.73252 62.6136 5.48193Z" fill="#AE285D"/>
<path id="path11" d="M24.2461 12.2237C25.5003 9.98465 26.722 7.72789 28.0048 5.50586C29.1995 7.7495 30.4012 9.99005 31.6099 12.226C31.18 12.236 30.7509 12.2352 30.321 12.2267C30.0601 11.7258 29.7931 11.228 29.5438 10.721C28.4717 10.7071 27.4005 10.7186 26.3284 10.7186C26.049 11.2242 25.7967 11.7459 25.4949 12.2391C25.0781 12.2275 24.6621 12.236 24.2461 12.2237ZM26.8494 9.76314C27.5818 9.76006 28.3151 9.77009 29.0483 9.76777C28.6793 9.09244 28.3552 8.39319 27.9593 7.73252C27.5865 8.40862 27.2183 9.0855 26.8494 9.76314Z" fill="#AE285D"/>
<path id="path13" d="M42.0943 6.08611C42.7071 5.78434 43.4249 5.74498 44.0879 5.8785C44.6621 5.99967 45.1237 6.40796 45.4741 6.86023C45.163 7.01768 44.8543 7.17745 44.5487 7.34493C44.1365 6.70047 43.1556 6.49517 42.5574 6.99762C42.2402 7.22453 42.2657 7.78332 42.6238 7.9562C43.4265 8.39845 44.4028 8.49338 45.1144 9.10542C45.8399 9.72055 45.8121 10.95 45.1399 11.5953C44.4182 12.3269 43.2752 12.4859 42.3158 12.2119C41.5124 12.009 40.9081 11.2703 40.8008 10.4584C41.189 10.3735 41.5811 10.3033 41.9739 10.2423C42.021 10.6228 42.1653 11.0419 42.5242 11.2333C43.0923 11.5382 43.9158 11.4617 44.3079 10.9114C44.5842 10.5371 44.5024 9.96213 44.125 9.68813C43.3362 9.15945 42.2888 9.12703 41.5811 8.46096C41.2075 8.14298 41.0524 7.61197 41.1797 7.1404C41.2808 6.65957 41.6737 6.30376 42.0943 6.08611Z" fill="#AE285D"/>
<path id="path15" d="M31.9863 5.94412C32.427 5.88623 32.8723 5.9063 33.3153 5.91093C33.7892 6.61636 34.2623 7.32179 34.737 8.02645C35.2364 7.33028 35.7218 6.62408 36.2142 5.92328C36.6688 5.90862 37.1234 5.9009 37.578 5.91479C36.8572 6.91737 36.1317 7.91763 35.4092 8.91943C36.1448 10.0347 36.9475 11.106 37.666 12.2328C37.233 12.2351 36.8 12.2313 36.3671 12.2274C35.816 11.4347 35.2688 10.639 34.7177 9.84637C34.1481 10.6421 33.5739 11.434 33.0112 12.2343C32.5729 12.2428 32.1337 12.2367 31.6953 12.2374C32.4579 11.1199 33.2605 10.0308 34.0532 8.9341C33.3717 7.93229 32.677 6.93975 31.9863 5.94412Z" fill="#AE285D"/>
<path id="path17" d="M38.6447 5.91641C39.0352 5.90483 39.425 5.9056 39.8155 5.91409C39.8178 8.02035 39.8163 10.1266 39.8163 12.2329C39.4196 12.2336 39.0237 12.2329 38.627 12.2329C38.6416 10.1274 38.6347 8.0219 38.6447 5.91641Z" fill="#AE285D"/>
<path id="path19" d="M50.0398 5.91113C51.0416 5.95435 52.1221 5.77298 53.0452 6.26385C53.9452 6.74546 54.1528 8.17407 53.3231 8.82084C53.8456 9.02691 54.3511 9.41513 54.4885 9.98704C54.7085 10.6886 54.3202 11.4651 53.7067 11.8286C52.5883 12.4429 51.2708 12.1566 50.0568 12.2399C50.019 10.1306 50.0429 8.02125 50.0398 5.91113ZM51.2022 6.82032C51.2045 7.42233 51.2029 8.02357 51.1991 8.6248C51.6344 8.60705 52.1167 8.63329 52.488 8.3647C52.8669 8.02743 52.853 7.32894 52.4347 7.02871C52.0689 6.79717 51.6174 6.82341 51.2022 6.82032ZM51.2091 9.45141C51.2045 10.065 51.2068 10.6794 51.2184 11.2929C51.8026 11.2621 52.4316 11.3701 52.9704 11.0807C53.4481 10.8461 53.5361 10.0789 53.0923 9.76553C52.5574 9.3503 51.8397 9.46453 51.2091 9.45141Z" fill="#AE285D"/>
<path id="path21" d="M70.5897 5.91116C70.9787 5.90808 71.3677 5.90962 71.7574 5.91039C71.759 6.7424 71.7497 7.57518 71.7675 8.40796C72.7261 7.56437 73.7032 6.7424 74.6672 5.90576C75.1997 5.90885 75.7322 5.91116 76.2648 5.90962C75.1148 6.85277 73.9741 7.80595 72.8441 8.77225C73.9555 9.9454 75.1071 11.0792 76.244 12.2276C75.716 12.2222 75.1874 12.2639 74.6618 12.2029C73.7572 11.2799 72.8588 10.3514 71.9627 9.42057C71.8971 9.50701 71.8323 9.59345 71.7682 9.6799C71.7451 10.5312 71.7659 11.3817 71.7513 12.233C71.36 12.2307 70.9687 12.2407 70.5781 12.2384C70.5812 10.1299 70.5866 8.02051 70.5897 5.91116Z" fill="#AE285D"/>
<path id="path23" d="M10.9824 12.1943C13.1651 12.1936 15.3478 12.1781 17.5304 12.2144C18.8301 14.4804 20.1715 16.7218 21.4597 18.994C19.277 19.0048 17.0951 18.9963 14.9125 18.9947C13.6135 16.721 12.2567 14.482 10.9824 12.1943Z" fill="#AE285D"/>
</g>
</g>
<defs>
<clipPath id="clip0_1091_47039">
<rect width="77.1806" height="20.067" fill="white" transform="translate(0 0.0668945)"/>
</clipPath>
</defs>
</svg>
