<svg width="102" height="21" viewBox="0 0 102 21" fill="none" xmlns="http://www.w3.org/2000/svg">
<g id="Canara_Bank_Logo" clip-path="url(#clip0_1091_47054)">
<path id="path2890_1_" d="M40.1323 19.4414L42.8895 15.8013L40.8168 15.5166L39.6509 16.9218C39.3972 17.2278 38.974 17.044 38.7536 16.887L32.7798 12.6258C32.5537 12.4646 32.7445 12.1817 32.979 12.143L38.9646 11.1577L39.6798 9.93945L30.3342 11.478C29.986 11.5345 29.7212 11.9322 30.039 12.1928L38.8041 19.3891C39.1139 19.6434 39.7779 19.911 40.1323 19.4414Z" fill="#FFB600"/>
<path id="path2892_1_" d="M45.9617 1.3793L53.1541 14.4841C53.8878 15.8199 53.1506 17.2113 51.8929 17.0382L43.5555 15.8932L44.3823 14.4824L50.399 15.2597C51.0245 15.3455 50.9589 14.9157 50.6952 14.4339L45.6212 3.85527C45.514 3.66059 45.1519 3.55907 45.0291 3.76944L39.4122 13.3377C39.2458 13.6213 39.1994 13.8101 39.5608 13.8596L41.9367 14.1666L40.8161 15.5168L37.7997 15.1023C37.2373 15.0249 36.9914 14.5186 37.3245 13.951L44.5599 1.62491C44.8854 1.07089 45.5071 0.551764 45.9617 1.3793Z" fill="#019EEC"/>
<path id="path2894_1_" d="M43.932 14.424L44.5154 13.6534L47.0883 10.2567C47.6608 9.50139 47.5408 8.6456 46.7632 8.77294L42.225 9.52023L41.6466 10.7162L44.0803 10.3153C44.605 10.2291 44.709 10.825 44.2998 11.3183L42.6506 13.3055L41.9361 14.1662L39.9629 16.5445L41.5862 17.5203L43.932 14.424Z" fill="#FFB500"/>
<path id="path9" d="M59.1489 10.5709H58.9517C58.8139 10.1522 58.695 9.81938 58.5934 9.57238C58.4919 9.32537 58.3918 9.13628 58.2931 9.00545C58.195 8.87462 58.0855 8.7888 57.9662 8.74798C57.8462 8.70751 57.7 8.68693 57.5269 8.68693C57.2939 8.68693 57.0835 8.73473 56.8951 8.83102C56.7071 8.92696 56.5456 9.08988 56.4112 9.31944C56.2769 9.54935 56.1737 9.85462 56.1018 10.2352C56.0303 10.6159 55.994 11.0886 55.994 11.6524C55.994 12.2224 56.0268 12.6962 56.0927 13.074C56.1583 13.4522 56.2588 13.7557 56.3927 13.9853C56.5274 14.2152 56.6942 14.3778 56.8944 14.4737C57.0943 14.5697 57.3319 14.6175 57.6068 14.6175C57.7917 14.6175 57.9501 14.5812 58.0816 14.5083C58.2132 14.4357 58.3311 14.3164 58.4358 14.151C58.5401 13.985 58.6357 13.7659 58.7222 13.4923C58.8087 13.2188 58.9029 12.879 59.0048 12.4719H59.2015V14.4427C58.9507 14.5707 58.6894 14.6639 58.4176 14.7221C58.1458 14.78 57.8755 14.8093 57.6068 14.8093C57.2241 14.8093 56.8676 14.735 56.5361 14.5868C56.2044 14.4385 55.9165 14.2278 55.6713 13.9543C55.426 13.6807 55.2334 13.3496 55.0935 12.9596C54.9529 12.5703 54.8828 12.1342 54.8828 11.6513C54.8828 11.1688 54.9529 10.7327 55.0935 10.343C55.2334 9.95335 55.4264 9.62226 55.6713 9.34875C55.9162 9.07558 56.204 8.86451 56.5361 8.71624C56.8676 8.56796 57.2245 8.49365 57.6068 8.49365C57.9117 8.49365 58.1895 8.52435 58.4403 8.58541C58.6911 8.64646 58.9273 8.72635 59.1482 8.82543V10.5709H59.1489Z" fill="#019EEC" stroke="#019EEC" stroke-width="0.23"/>
<path id="path11" d="M60.3927 11.827V10.4141C60.6087 10.3213 60.8194 10.2456 61.0245 10.1873C61.2293 10.1291 61.4425 10.1001 61.6644 10.1001C61.9246 10.1001 62.1493 10.1336 62.3377 10.2006C62.5261 10.2676 62.6824 10.3534 62.8073 10.4577C62.9322 10.562 63.0236 10.6817 63.0815 10.8153C63.1398 10.9493 63.1687 11.0829 63.1687 11.2161V14.4785H63.5678V14.6704H62.4378V13.9028H62.4211C62.3213 14.1764 62.1605 14.3958 61.9389 14.5615C61.7171 14.7272 61.4568 14.8103 61.1578 14.8103C60.781 14.8103 60.4765 14.7039 60.2438 14.4917C60.0111 14.2796 59.8945 13.9817 59.8945 13.5976C59.8945 13.3418 59.9374 13.1371 60.0233 12.9825C60.1091 12.8287 60.2242 12.7065 60.3683 12.6162C60.512 12.5262 60.6743 12.4592 60.8546 12.4156C61.0347 12.372 61.2189 12.3329 61.4073 12.298C61.5956 12.2628 61.7795 12.2237 61.9599 12.1801C62.1399 12.1365 62.2993 12.0709 62.4378 11.9837V11.0682C62.4378 10.7891 62.3722 10.5903 62.2425 10.471C62.112 10.3516 61.9361 10.292 61.7143 10.292C61.5702 10.292 61.4484 10.315 61.3486 10.3618C61.2489 10.4085 61.1589 10.4884 61.0786 10.6018C60.9984 10.7148 60.9195 10.8718 60.8417 11.0728C60.7639 11.2737 60.6753 11.5249 60.5755 11.827H60.3927ZM62.4375 12.2111C62.2048 12.3273 61.9843 12.4062 61.7764 12.4466C61.5688 12.4875 61.3874 12.5412 61.2321 12.6082C61.0769 12.6748 60.9534 12.7781 60.862 12.9176C60.7706 13.0572 60.7249 13.2843 60.7249 13.5979C60.7249 13.9294 60.7814 14.1621 60.8951 14.2957C61.0085 14.4296 61.1763 14.4963 61.3978 14.4963C61.7132 14.4848 61.9655 14.332 62.1539 14.0382C62.3422 13.7445 62.4368 13.3565 62.4368 12.8737V12.2111H62.4375Z" fill="#019EEC" stroke="#019EEC" stroke-width="0.23"/>
<path id="path13" d="M64.0918 10.2396H65.2553V10.8327H65.272C65.3715 10.6468 65.5184 10.4779 65.7127 10.3269C65.9066 10.1758 66.1502 10.1001 66.4439 10.1001C66.6103 10.1001 66.761 10.1221 66.8971 10.1657C67.0328 10.2093 67.1507 10.2819 67.2502 10.3837C67.3499 10.4853 67.4277 10.6178 67.4829 10.7804C67.5383 10.9433 67.5659 11.1439 67.5659 11.3826V14.4788H68.0149V14.6707H66.3026V14.4788H66.7848V11.2779C66.7848 10.9521 66.7363 10.727 66.6393 10.6018C66.5426 10.4769 66.3972 10.4141 66.2032 10.4141C66.0867 10.4141 65.9761 10.4403 65.8707 10.4929C65.7654 10.5449 65.6726 10.6266 65.5923 10.7368C65.5121 10.8474 65.4468 10.9855 65.3969 11.1513C65.3467 11.3173 65.3219 11.5134 65.3219 11.7402V14.4792H65.8041V14.6711H64.0922V14.4792H64.5408V10.4315H64.0922V10.2396H64.0918Z" fill="#019EEC" stroke="#019EEC" stroke-width="0.23"/>
<path id="path15" d="M69.1701 11.827V10.4141C69.386 10.3213 69.5968 10.2456 69.8019 10.1873C70.0067 10.1291 70.2198 10.1001 70.4417 10.1001C70.702 10.1001 70.9267 10.1336 71.1151 10.2006C71.3035 10.2676 71.4598 10.3534 71.5847 10.4577C71.7095 10.562 71.801 10.6817 71.8589 10.8153C71.9171 10.9493 71.9461 11.0829 71.9461 11.2161V14.4785H72.3452V14.6704H71.2152V13.9028H71.1984C71.0987 14.1764 70.9378 14.3958 70.7163 14.5615C70.4944 14.7272 70.2341 14.8103 69.9352 14.8103C69.5584 14.8103 69.2538 14.7039 69.0211 14.4917C68.7884 14.2796 68.6719 13.9817 68.6719 13.5976C68.6719 13.3418 68.7148 13.1371 68.8006 12.9825C68.8864 12.8287 69.0016 12.7065 69.1456 12.6162C69.2894 12.5262 69.4516 12.4592 69.632 12.4156C69.812 12.372 69.9962 12.3329 70.1846 12.298C70.373 12.2628 70.5568 12.2237 70.7372 12.1801C70.9172 12.1365 71.0767 12.0709 71.2152 11.9837V11.0682C71.2152 10.7891 71.1496 10.5903 71.0198 10.471C70.8893 10.3516 70.7135 10.292 70.4916 10.292C70.3475 10.292 70.2258 10.315 70.126 10.3618C70.0262 10.4085 69.9362 10.4884 69.856 10.6018C69.7757 10.7148 69.6969 10.8718 69.6191 11.0728C69.5413 11.2737 69.4527 11.5249 69.3529 11.827H69.1701ZM71.2145 12.2111C70.9818 12.3273 70.7613 12.4062 70.5534 12.4466C70.3458 12.4875 70.1644 12.5412 70.0091 12.6082C69.8539 12.6748 69.7304 12.7781 69.639 12.9176C69.5476 13.0572 69.5019 13.2843 69.5019 13.5979C69.5019 13.9294 69.5584 14.1621 69.6721 14.2957C69.7855 14.4296 69.9533 14.4963 70.1748 14.4963C70.4902 14.4848 70.7425 14.332 70.9309 14.0382C71.1192 13.7445 71.2138 13.3565 71.2138 12.8737V12.2111H71.2145Z" fill="#019EEC" stroke="#019EEC" stroke-width="0.23"/>
<path id="path17" d="M73.3842 10.4312H72.9355V10.2393H74.1489V10.8851H74.1657C74.2543 10.6293 74.3775 10.4343 74.5358 10.3007C74.6935 10.1671 74.9056 10.1001 75.1715 10.1001C75.2769 10.1001 75.3833 10.1189 75.4914 10.157C75.5996 10.195 75.684 10.2281 75.745 10.2574V11.9669H75.5622L75.2716 11.0686C75.1938 10.8362 75.1272 10.6688 75.0721 10.5669C75.0166 10.4654 74.9391 10.4141 74.8394 10.4141C74.7563 10.4141 74.673 10.4518 74.5899 10.5275C74.5069 10.6032 74.435 10.7064 74.374 10.8373C74.3129 10.9681 74.263 11.1195 74.2243 11.2908C74.1856 11.4625 74.166 11.647 74.166 11.8448V14.4788H74.7145V14.6707H72.9359V14.4788H73.3846V10.4312H73.3842Z" fill="#019EEC" stroke="#019EEC" stroke-width="0.23"/>
<path id="path19" d="M76.8654 11.827V10.4141C77.0813 10.3213 77.2921 10.2456 77.4972 10.1873C77.702 10.1291 77.9152 10.1001 78.137 10.1001C78.3973 10.1001 78.622 10.1336 78.8104 10.2006C78.9988 10.2676 79.1551 10.3534 79.28 10.4577C79.4049 10.562 79.4963 10.6817 79.5542 10.8153C79.6124 10.9493 79.6414 11.0829 79.6414 11.2161V14.4785H80.0405V14.6704H78.9105V13.9028H78.8937C78.794 14.1764 78.6331 14.3958 78.4116 14.5615C78.1897 14.7272 77.9295 14.8103 77.6305 14.8103C77.2537 14.8103 76.9491 14.7039 76.7164 14.4917C76.4837 14.2796 76.3672 13.9817 76.3672 13.5976C76.3672 13.3418 76.4101 13.1371 76.4959 12.9825C76.5817 12.8287 76.6969 12.7065 76.841 12.6162C76.9847 12.5262 77.1469 12.4592 77.3273 12.4156C77.5073 12.372 77.6915 12.3329 77.8799 12.298C78.0683 12.2628 78.2522 12.2237 78.4325 12.1801C78.6126 12.1365 78.772 12.0709 78.9105 11.9837V11.0682C78.9105 10.7891 78.8449 10.5903 78.7151 10.471C78.5846 10.3516 78.4088 10.292 78.1869 10.292C78.0428 10.292 77.9211 10.315 77.8213 10.3618C77.7215 10.4085 77.6315 10.4884 77.5513 10.6018C77.471 10.7148 77.3922 10.8718 77.3144 11.0728C77.2366 11.2737 77.148 11.5249 77.0482 11.827H76.8654ZM78.9098 12.2111C78.6771 12.3273 78.4566 12.4062 78.2487 12.4466C78.0411 12.4875 77.8597 12.5412 77.7044 12.6082C77.5492 12.6748 77.4257 12.7781 77.3343 12.9176C77.2429 13.0572 77.1972 13.2843 77.1972 13.5979C77.1972 13.9294 77.2537 14.1621 77.3674 14.2957C77.4808 14.4296 77.6486 14.4963 77.8701 14.4963C78.1855 14.4848 78.4378 14.332 78.6262 14.0382C78.8146 13.7445 78.9091 13.3565 78.9091 12.8737V12.2111H78.9098Z" fill="#019EEC" stroke="#019EEC" stroke-width="0.23"/>
<path id="path21" d="M83.4563 8.82665H82.9577V8.63477H85.3346C85.6008 8.63477 85.8415 8.66965 86.0578 8.73943C86.2738 8.8092 86.4569 8.90514 86.6063 9.02725C86.7559 9.14936 86.8721 9.29484 86.9551 9.46334C87.0382 9.63185 87.0797 9.81501 87.0797 10.0128C87.0797 10.2396 87.0396 10.4374 86.959 10.6059C86.8787 10.7748 86.7723 10.9157 86.6391 11.0291C86.5061 11.1425 86.3565 11.2328 86.1904 11.2995C86.0243 11.3661 85.8551 11.4143 85.6835 11.4432V11.4607C86.2707 11.5189 86.7197 11.6818 87.0298 11.9491C87.34 12.2167 87.4952 12.5509 87.4952 12.9521C87.4952 13.1963 87.445 13.4231 87.3455 13.6324C87.2458 13.8417 87.0933 14.0235 86.8882 14.1777C86.683 14.3319 86.4242 14.4523 86.1109 14.5395C85.7976 14.6267 85.4253 14.6703 84.9931 14.6703H82.957V14.4784H83.4556V8.82665H83.4563ZM84.3539 11.4087H84.8274C85.2484 11.4087 85.5715 11.3082 85.7955 11.1076C86.0202 10.9073 86.1321 10.5623 86.1321 10.0742C86.1321 9.6322 86.0449 9.31403 85.8705 9.119C85.6957 8.92433 85.4449 8.827 85.1183 8.827H84.3539V11.4087ZM84.3539 14.4788H84.7443C85.3371 14.4788 85.7721 14.3668 86.0491 14.1428C86.3261 13.9188 86.4646 13.5277 86.4646 12.9699C86.4646 12.4696 86.3537 12.1169 86.1321 11.9104C85.9106 11.7038 85.5642 11.6006 85.0932 11.6006H84.3536V14.4788H84.3539Z" fill="#019EEC" stroke="#019EEC" stroke-width="0.23"/>
<path id="path23" d="M88.7267 11.827V10.4141C88.9427 10.3213 89.1534 10.2456 89.3585 10.1873C89.5633 10.1291 89.7765 10.1001 89.9984 10.1001C90.2586 10.1001 90.4833 10.1336 90.6717 10.2006C90.8601 10.2676 91.0164 10.3534 91.1413 10.4577C91.2662 10.562 91.3576 10.6817 91.4155 10.8153C91.4738 10.9493 91.5027 11.0829 91.5027 11.2161V14.4785H91.9018V14.6704H90.7718V13.9028H90.7551C90.6553 14.1764 90.4945 14.3958 90.2729 14.5615C90.051 14.7272 89.7908 14.8103 89.4918 14.8103C89.115 14.8103 88.8104 14.7039 88.5777 14.4917C88.345 14.2796 88.2285 13.9817 88.2285 13.5976C88.2285 13.3418 88.2714 13.1371 88.3573 12.9825C88.4431 12.8287 88.5582 12.7065 88.7023 12.6162C88.846 12.5262 89.0082 12.4592 89.1886 12.4156C89.3686 12.372 89.5528 12.3329 89.7412 12.298C89.9296 12.2628 90.1135 12.2237 90.2939 12.1801C90.4739 12.1365 90.6333 12.0709 90.7718 11.9837V11.0682C90.7718 10.7891 90.7062 10.5903 90.5764 10.471C90.446 10.3516 90.2701 10.292 90.0482 10.292C89.9042 10.292 89.7824 10.315 89.6826 10.3618C89.5828 10.4085 89.4928 10.4884 89.4126 10.6018C89.3324 10.7148 89.2535 10.8718 89.1757 11.0728C89.0979 11.2737 89.0093 11.5249 88.9095 11.827H88.7267ZM90.7715 12.2111C90.5388 12.3273 90.3183 12.4062 90.1104 12.4466C89.9028 12.4875 89.7214 12.5412 89.5661 12.6082C89.4109 12.6748 89.2874 12.7781 89.196 12.9176C89.1045 13.0572 89.0588 13.2843 89.0588 13.5979C89.0588 13.9294 89.1154 14.1621 89.2291 14.2957C89.3425 14.4296 89.5103 14.4963 89.7318 14.4963C90.0472 14.4848 90.2994 14.332 90.4878 14.0382C90.6762 13.7445 90.7708 13.3565 90.7708 12.8737V12.2111H90.7715Z" fill="#019EEC" stroke="#019EEC" stroke-width="0.23"/>
<path id="path25" d="M92.4238 10.2396H93.5873V10.8327H93.6041C93.7035 10.6468 93.8504 10.4779 94.0447 10.3269C94.2387 10.1758 94.4822 10.1001 94.776 10.1001C94.9424 10.1001 95.0931 10.1221 95.2291 10.1657C95.3649 10.2093 95.4828 10.2819 95.5822 10.3837C95.682 10.4853 95.7598 10.6178 95.8149 10.7804C95.8704 10.9433 95.8979 11.1439 95.8979 11.3826V14.4788H96.3469V14.6707H94.6347V14.4788H95.1168V11.2779C95.1168 10.9521 95.0683 10.727 94.9713 10.6018C94.8747 10.4769 94.7292 10.4141 94.5352 10.4141C94.4187 10.4141 94.3081 10.4403 94.2027 10.4929C94.0974 10.5449 94.0046 10.6266 93.9244 10.7368C93.8441 10.8474 93.7789 10.9855 93.729 11.1513C93.6787 11.3173 93.654 11.5134 93.654 11.7402V14.4792H94.1361V14.6711H92.4242V14.4792H92.8728V10.4315H92.4242V10.2396H92.4238Z" fill="#019EEC" stroke="#019EEC" stroke-width="0.23"/>
<path id="path27" d="M96.9375 14.6703V14.4784H97.3862V8.82665H96.9375V8.63477H98.1673V12.2805L99.7299 10.4311H99.1982V10.2392H100.395V10.4311H99.9961L98.8078 11.8702L100.512 14.4784H100.744V14.6703H99.7139L98.1844 12.3503H98.1676V14.4788H98.6997V14.6707H96.9375V14.6703Z" fill="#019EEC" stroke="#019EEC" stroke-width="0.23"/>
<g id="XMLID_10_">
<g id="g30">
<path id="path32" d="M9.47524 12.5897C9.47524 13.2655 8.89401 13.8118 8.17882 13.8118C7.46013 13.8118 6.87891 13.2655 6.87891 12.5897C6.87891 11.9174 7.46048 11.3711 8.17882 11.3711C8.89401 11.3711 9.47524 11.9174 9.47524 12.5897ZM8.70004 12.6183C8.70004 12.0828 8.45338 11.6551 8.15405 11.6551C7.85471 11.6551 7.61154 12.0828 7.61154 12.6183C7.61154 13.1504 7.85471 13.5781 8.15405 13.5781C8.45338 13.5781 8.70004 13.1504 8.70004 12.6183Z" fill="#019EEC" stroke="#019EEC" stroke-width="0.12875"/>
</g>
</g>
<path id="line36" d="M7.85547 11.5298H10.2481" stroke="#019EEC" stroke-width="1.0675" stroke-miterlimit="10"/>
<path id="line38" d="M10.498 10.4761V14.6685" stroke="#019EEC" stroke-width="2.41875" stroke-miterlimit="10"/>
<path id="line40" d="M9.73438 14.6396H11.2021" stroke="#019EEC" stroke-width="0.802895" stroke-miterlimit="10"/>
<path id="line42" d="M15.7832 10.4761V14.6685" stroke="#019EEC" stroke-width="2.41875" stroke-miterlimit="10"/>
<path id="line44" d="M15.0195 14.6396H16.4873" stroke="#019EEC" stroke-width="0.802895" stroke-miterlimit="10"/>
<g id="XMLID_9_">
<g id="g47">
<path id="path49" d="M27.3335 12.0048C27.6154 12.8564 27.2878 14.136 26.2168 14.0534C26.0371 14.039 25.8504 13.9923 25.7622 13.9204V12.9321H25.7796C26.0332 13.162 25.9945 13.9637 26.3926 13.7837C26.7697 13.6183 26.7449 12.7196 26.7202 12.3784C26.6392 11.239 25.7514 10.9909 25.1914 12.0048V11.4654C25.8857 10.8221 27.0234 11.0593 27.3335 12.0048Z" fill="#019EEC" stroke="#019EEC" stroke-width="0.12875"/>
<path id="polygon51" d="M24.6047 13.5002L24.5799 11.6885L24.5764 11.3288L24.5624 10.3262H25.1929V11.4656V12.005V14.5029H25.5874V14.7405H24.291V14.4743L24.5307 14.4886L24.6186 14.46L24.6081 13.6834L24.6047 13.5002Z" fill="#019EEC" stroke="#019EEC" stroke-width="0.125"/>
<path id="path53" d="M24.6041 13.5002L24.6076 13.6834C24.4527 14.0106 24.0721 14.1652 23.7232 14.1432C22.7296 14.0856 22.3598 12.9535 22.5604 12.1089C22.7931 11.1202 23.7655 10.8509 24.5616 11.3288H24.5759L24.5794 11.6882H24.5476C23.5858 10.8254 23.142 11.7674 23.223 12.7665C23.2756 13.4245 24.0404 14.4129 24.5898 13.5002H24.6041Z" fill="#019EEC" stroke="#019EEC" stroke-width="0.12875"/>
</g>
</g>
<g id="XMLID_8_">
<g id="g58">
<path id="path60" d="M5.84327 12.0052C6.12516 12.8568 5.79756 14.1365 4.72652 14.0538C4.54685 14.0395 4.3602 13.9928 4.27193 13.9209V12.9326H4.28938C4.54301 13.1625 4.50428 13.9642 4.90235 13.7842C5.27948 13.6188 5.25471 12.7201 5.22994 12.3789C5.149 11.2395 4.26112 10.9914 3.70117 12.0052V11.4659C4.39543 10.8226 5.53347 11.0598 5.84327 12.0052Z" fill="#019EEC" stroke="#019EEC" stroke-width="0.12875"/>
<path id="path62" d="M3.11704 13.6838L3.11355 13.5006L3.08878 11.6889L3.08529 11.3296L3.07099 10.3269L2.10216 8.99313H1.5V8.63379H2.55674L3.70175 10.3269V11.4663V12.0057V14.5326H4.09633V14.7698H2.79991V14.5326H3.03959H3.1275L3.11704 13.6876C3.11704 13.6876 3.11704 13.6872 3.11704 13.6838Z" fill="#019EEC" stroke="#019EEC" stroke-width="0.12875"/>
<path id="path64" d="M3.1174 13.6835C3.1174 13.687 3.1174 13.687 3.1174 13.687C2.95867 14.0108 2.58188 14.1653 2.233 14.1437C1.23941 14.0861 0.8696 12.954 1.0702 12.1094C1.3029 11.1207 2.27522 10.8514 3.07135 11.3293H3.08566L3.08914 11.6887H3.05775C2.0959 10.8259 1.65213 11.7679 1.73307 12.767C1.78575 13.425 2.55048 14.4134 3.09996 13.5007H3.11426L3.1174 13.6835Z" fill="#019EEC" stroke="#019EEC" stroke-width="0.12875"/>
</g>
</g>
<g id="XMLID_7_">
<g id="g69">
<path id="polygon71" d="M20.7547 14.7677V14.5015L20.9944 14.5158L21.0823 14.4872L21.0718 13.6422V13.6387L21.0684 13.4556L21.0436 11.6442L21.0401 11.2845L21.0258 10.3534L20.6316 9.06321H20.1348V8.77539H21.0858L21.6566 10.3534V14.5301H22.0511V14.7677H20.7547Z" fill="#019EEC" stroke="#019EEC" stroke-width="0.00375"/>
<path id="path73" d="M21.0722 13.6389V13.6424C20.9103 13.9662 20.424 14.1207 20.0259 14.0991C18.8848 14.0419 18.4619 12.9094 18.6908 12.0648C18.9587 11.0764 20.2304 10.8067 21.0265 11.285H21.0408L21.0443 11.6444H21.0125C20.0507 10.7813 19.3603 11.7236 19.4517 12.7228C19.3777 13.7397 20.5053 14.3691 21.0548 13.4561H21.0691L21.0722 13.6389Z" fill="#019EEC" stroke="#019EEC" stroke-width="0.12875"/>
</g>
</g>
<g id="XMLID_6_">
<g id="g78">
<path id="polygon80" d="M18.9805 9.15527H19.9385L21.3867 10.5536V10.6003H20.7698L19.4842 9.44275H18.9805V9.15527Z" fill="#019EEC" stroke="#019EEC" stroke-width="0.00375"/>
<path id="path82" d="M14.0489 12.1525H13.5664C14.306 11.7788 13.8657 10.9199 13.6756 10.4775H14.2425C14.5631 10.7542 14.7746 11.0061 14.725 11.4481C14.6828 11.8542 14.4679 12.2533 14.0489 12.2135V12.1525Z" fill="#019EEC" stroke="#019EEC" stroke-width="0.12875"/>
<path id="path84" d="M14.3876 13.5182V14.3988C14.3241 14.4493 14.2641 14.4814 14.1974 14.5212C13.5213 14.8917 12.3233 14.7117 12.2598 13.7415V12.1523H12.9928V14.0576C13.0419 14.7654 14.3453 14.7044 14.3453 13.5182H14.3876Z" fill="#019EEC" stroke="#019EEC" stroke-width="0.12875"/>
</g>
<g id="g86">
<path id="polyline88" d="M11.791 12.1528H12.2599H12.9925H13.5668H14.0493H14.1093" stroke="#019EEC" stroke-width="0.458797" stroke-linejoin="round"/>
<path id="polyline90" d="M1.36719 10.478H13.6766H14.2438H16.7236" stroke="#019EEC" stroke-width="1.185" stroke-linejoin="round"/>
<path id="polyline92" d="M18.9824 10.4634H20.7435H21.3604H27.4371" stroke="#019EEC" stroke-width="1.185" stroke-linejoin="round"/>
</g>
</g>
<path id="ellipse94" d="M22.2278 10.0657C22.4269 10.0657 22.5883 9.91512 22.5883 9.72938C22.5883 9.54364 22.4269 9.39307 22.2278 9.39307C22.0286 9.39307 21.8672 9.54364 21.8672 9.72938C21.8672 9.91512 22.0286 10.0657 22.2278 10.0657Z" fill="#019EEC" stroke="#019EEC" stroke-width="0.12875"/>
<path id="line96" d="M19.2148 11.6929L21.2722 13.2733" stroke="#019EEC" stroke-width="1.16" stroke-miterlimit="10"/>
</g>
<defs>
<clipPath id="clip0_1091_47054">
<rect width="101.762" height="20.0669" fill="white" transform="translate(0 0.133789)"/>
</clipPath>
</defs>
</svg>
