<svg width="17" height="16" viewBox="0 0 17 16" fill="none" xmlns="http://www.w3.org/2000/svg">
<g id="clock">
<g id="vuesax/linear/clock">
<g id="clock_2">
<g id="Vector">
<path d="M15.1673 7.99992C15.1673 11.6799 12.1807 14.6666 8.50065 14.6666C4.82065 14.6666 1.83398 11.6799 1.83398 7.99992C1.83398 4.31992 4.82065 1.33325 8.50065 1.33325C12.1807 1.33325 15.1673 4.31992 15.1673 7.99992Z" stroke="#344054" stroke-width="1.5" stroke-linecap="round" stroke-linejoin="round"/>
<path d="M15.1673 7.99992C15.1673 11.6799 12.1807 14.6666 8.50065 14.6666C4.82065 14.6666 1.83398 11.6799 1.83398 7.99992C1.83398 4.31992 4.82065 1.33325 8.50065 1.33325C12.1807 1.33325 15.1673 4.31992 15.1673 7.99992Z" stroke="black" stroke-opacity="0.2" stroke-width="1.5" stroke-linecap="round" stroke-linejoin="round"/>
</g>
<g id="Vector_2">
<path d="M10.9739 10.1199L8.90724 8.88659C8.54724 8.67326 8.25391 8.15992 8.25391 7.73992V5.00659" stroke="#344054" stroke-width="1.5" stroke-linecap="round" stroke-linejoin="round"/>
<path d="M10.9739 10.1199L8.90724 8.88659C8.54724 8.67326 8.25391 8.15992 8.25391 7.73992V5.00659" stroke="black" stroke-opacity="0.2" stroke-width="1.5" stroke-linecap="round" stroke-linejoin="round"/>
</g>
</g>
</g>
</g>
</svg>
