<svg width="18" height="18" viewBox="0 0 18 18" fill="none" xmlns="http://www.w3.org/2000/svg">
<circle cx="9" cy="9" r="9" fill="#E8F4FF"/>
<g clip-path="url(#clip0_813_44936)">
<path d="M12.121 10.9353C12.121 11.6183 11.8989 12.2065 11.4547 12.6998C11.0105 13.1931 10.4335 13.4978 9.7237 13.6138V14.7857C9.7237 14.8482 9.70361 14.8996 9.66343 14.9397C9.62326 14.9799 9.57192 15 9.50942 15H8.6054C8.54736 15 8.49714 14.9788 8.45473 14.9364C8.41232 14.894 8.39111 14.8438 8.39111 14.7857V13.6138C8.09647 13.5737 7.81187 13.5045 7.53732 13.4062C7.26277 13.308 7.0362 13.2087 6.85763 13.1083C6.67906 13.0078 6.51388 12.9007 6.3621 12.7868C6.21031 12.673 6.10652 12.5893 6.05071 12.5357C5.99491 12.4821 5.95585 12.442 5.93352 12.4152C5.85763 12.3214 5.85317 12.2299 5.92013 12.1406L6.60986 11.2366C6.64111 11.192 6.69245 11.1652 6.76388 11.1562C6.83085 11.1473 6.88442 11.1674 6.9246 11.2165L6.93799 11.2299C7.44245 11.6719 7.98486 11.9509 8.56522 12.067C8.7304 12.1027 8.89558 12.1205 9.06076 12.1205C9.42236 12.1205 9.74044 12.0246 10.015 11.8326C10.2896 11.6406 10.4268 11.3683 10.4268 11.0156C10.4268 10.8906 10.3933 10.7723 10.3264 10.6607C10.2594 10.5491 10.1846 10.4554 10.1021 10.3795C10.0195 10.3036 9.88888 10.2199 9.71031 10.1283C9.53174 10.0368 9.38442 9.9654 9.26835 9.91406C9.15227 9.86272 8.9737 9.79018 8.73263 9.69643C8.55852 9.625 8.42125 9.5692 8.3208 9.52902C8.22035 9.48884 8.08308 9.42969 7.90897 9.35156C7.73486 9.27344 7.59535 9.20424 7.49044 9.14397C7.38553 9.08371 7.25942 9.00446 7.1121 8.90625C6.96477 8.80804 6.84535 8.71317 6.75384 8.62165C6.66232 8.53013 6.56522 8.42076 6.46254 8.29353C6.35986 8.16629 6.28062 8.03683 6.22482 7.90513C6.16902 7.77344 6.12214 7.625 6.08419 7.45982C6.04625 7.29464 6.02727 7.12054 6.02727 6.9375C6.02727 6.32143 6.24602 5.78125 6.68352 5.31696C7.12102 4.85268 7.69022 4.55357 8.39111 4.41964V3.21429C8.39111 3.15625 8.41232 3.10603 8.45473 3.06362C8.49714 3.02121 8.54736 3 8.6054 3H9.50942C9.57192 3 9.62326 3.02009 9.66343 3.06027C9.70361 3.10045 9.7237 3.15179 9.7237 3.21429V4.39286C9.97817 4.41964 10.2248 4.47098 10.4637 4.54688C10.7025 4.62277 10.8967 4.69754 11.0462 4.77121C11.1958 4.84487 11.3375 4.92857 11.4715 5.02232C11.6054 5.11607 11.6925 5.1808 11.7326 5.21652C11.7728 5.25223 11.8063 5.28348 11.8331 5.31027C11.909 5.39062 11.9201 5.47545 11.8666 5.56473L11.3241 6.54241C11.2884 6.60938 11.2371 6.64509 11.1701 6.64955C11.1076 6.66295 11.0474 6.64732 10.9893 6.60268C10.9759 6.58929 10.9436 6.5625 10.8922 6.52232C10.8409 6.48214 10.7538 6.42299 10.6311 6.34487C10.5083 6.26674 10.3777 6.19531 10.2393 6.13058C10.1009 6.06585 9.93464 6.00781 9.74044 5.95647C9.54625 5.90513 9.3554 5.87946 9.1679 5.87946C8.74379 5.87946 8.39781 5.97545 8.12995 6.16741C7.8621 6.35938 7.72817 6.60714 7.72817 6.91071C7.72817 7.02679 7.74714 7.13393 7.78509 7.23214C7.82303 7.33036 7.88888 7.42299 7.98263 7.51004C8.07638 7.5971 8.16455 7.67076 8.24714 7.73103C8.32973 7.79129 8.45473 7.86049 8.62214 7.93862C8.78955 8.01674 8.9246 8.07701 9.02727 8.11942C9.12995 8.16183 9.2862 8.22321 9.49602 8.30357C9.73263 8.39286 9.91343 8.46317 10.0384 8.51451C10.1634 8.56585 10.3331 8.64397 10.5474 8.74888C10.7616 8.85379 10.9302 8.94866 11.0529 9.03348C11.1757 9.1183 11.3141 9.22991 11.4681 9.3683C11.6221 9.5067 11.7404 9.64844 11.823 9.79353C11.9056 9.93862 11.9759 10.1094 12.034 10.3058C12.092 10.5022 12.121 10.7121 12.121 10.9353Z" fill="#0088FF"/>
</g>
<defs>
<clipPath id="clip0_813_44936">
<rect width="6.42857" height="12" fill="white" transform="translate(5.78613 3)"/>
</clipPath>
</defs>
</svg>
