<svg width="43" height="44" viewBox="0 0 43 44" fill="none" xmlns="http://www.w3.org/2000/svg">
<g id="flag">
<g id="vuesax/bulk/flag">
<g id="flag_2">
<path id="Vector" d="M9.48763 39.7157C8.75874 39.7157 8.1543 39.1113 8.1543 38.3824V5.49349C8.1543 4.7646 8.75874 4.16016 9.48763 4.16016C10.2165 4.16016 10.821 4.7646 10.821 5.49349V38.3824C10.821 39.1113 10.2165 39.7157 9.48763 39.7157Z" fill="#0088FF"/>
<path id="Vector_2" opacity="0.4" d="M32.3676 22.5247L30.1987 20.3558C29.6831 19.9114 29.3809 19.2536 29.3631 18.5247C29.3276 17.7247 29.6476 16.9247 30.2342 16.338L32.3676 14.2047C34.2165 12.3558 34.9098 10.578 34.3231 9.17357C33.7542 7.78691 31.9942 7.02246 29.3987 7.02246H9.48757C9.11423 7.04024 8.81201 7.34246 8.81201 7.71579V29.0491C8.81201 29.4225 9.11423 29.7247 9.48757 29.7247H29.3987C31.9587 29.7247 33.6831 28.9425 34.2698 27.538C34.8565 26.1158 34.1809 24.3558 32.3676 22.5247Z" fill="#0088FF"/>
</g>
</g>
</g>
</svg>
