<svg width="103" height="18" viewBox="0 0 103 18" fill="none" xmlns="http://www.w3.org/2000/svg">
<g id="HDFC_Bank_Logo" clip-path="url(#clip0_1091_47003)">
<g id="layer1">
<g id="g11008">
<path id="path1556" d="M0.380859 0.379469H102.693V17.2056H0.380859V0.379469Z" fill="#004C8F"/>
<path id="path1558" d="M17.4336 0.379469H102.693V17.2056H17.4336V0.379469Z" fill="#004C8F"/>
<path id="path1560" d="M22.8555 12.7729V4.8116H25.5097V7.49851H27.9966V4.8116H30.6551V12.7729H27.9966V9.68406H25.5097V12.7729H22.8555Z" fill="white"/>
<path id="path1562" d="M34.8561 6.78977H35.5443C36.0395 6.78977 36.4019 6.84053 36.6334 6.94208C36.8049 7.01613 36.9443 7.12616 37.0665 7.29119C37.1779 7.4541 37.268 7.65936 37.3345 7.91748C37.3945 8.17347 37.4266 8.44422 37.4266 8.72984C37.4266 9.19529 37.3623 9.5846 37.223 9.89984C37.0879 10.2151 36.8928 10.4414 36.642 10.5811C36.3911 10.7228 36.0181 10.7905 35.525 10.7905L34.8561 10.7948V6.78977ZM35.8808 12.7729C36.5069 12.7729 37.0258 12.7222 37.4503 12.61C37.8769 12.5021 38.2242 12.3583 38.49 12.1869C38.7602 12.0113 39.0046 11.7744 39.2297 11.4803C39.4527 11.1756 39.6477 10.7927 39.8 10.323C39.9565 9.85543 40.0315 9.3286 40.0315 8.73197C40.0315 7.85608 39.8622 7.11559 39.5191 6.4978C39.1718 5.89272 38.7002 5.45479 38.0977 5.19668C37.4974 4.93856 36.7813 4.8116 35.9495 4.8116H32.2598V12.7729H35.8808Z" fill="white"/>
<path id="path1564" d="M41.2461 12.7729V4.8116H47.5407V6.77498H43.8659V8.05074H46.8053V9.96118H43.8659V12.7729H41.2461Z" fill="white"/>
<path id="path1566" d="M56.4299 7.85623H53.9236C53.8764 7.46059 53.7306 7.14752 53.4884 6.92325C53.244 6.70322 52.9374 6.59532 52.56 6.59532C52.0905 6.59532 51.7089 6.77514 51.4152 7.13057C51.1193 7.49024 50.9714 8.07205 50.9714 8.87178C50.9714 9.43033 51.0379 9.8492 51.1601 10.1348C51.2866 10.4289 51.4645 10.6405 51.6853 10.7822C51.9126 10.924 52.1892 10.9896 52.5301 10.9896C52.9374 10.9896 53.2633 10.888 53.5013 10.6553C53.7457 10.4374 53.8872 10.1116 53.9343 9.67576H56.4856C56.4299 10.1708 56.3291 10.5855 56.1833 10.924C56.0439 11.2604 55.7953 11.5946 55.4587 11.931C55.1178 12.2717 54.7104 12.534 54.2409 12.716C53.7714 12.9 53.2289 12.9868 52.6072 12.9868C51.994 12.9868 51.4217 12.9001 50.905 12.7224C50.3819 12.5404 49.9402 12.2822 49.5886 11.9585C49.2305 11.6221 48.9519 11.2456 48.7525 10.8203C48.4652 10.2216 48.3301 9.56364 48.3301 8.82949C48.3301 8.21594 48.4308 7.63409 48.6345 7.10094C48.8382 6.57202 49.1191 6.12135 49.4771 5.75745C49.8373 5.39567 50.2296 5.12491 50.667 4.94296C51.2201 4.71023 51.829 4.59811 52.5044 4.59811C53.0918 4.59811 53.6363 4.68268 54.1508 4.85405C54.6632 5.02542 55.0835 5.27511 55.4115 5.60727C55.7438 5.93944 55.9989 6.32025 56.1769 6.75396C56.3055 7.05651 56.387 7.42251 56.4299 7.85623Z" fill="white"/>
<path id="path1568" d="M64.9305 6.60363C65.3057 6.60363 65.548 6.62052 65.668 6.65438C65.8224 6.69881 65.951 6.78554 66.0432 6.89979C66.1375 7.01827 66.1869 7.15582 66.1869 7.3145C66.1869 7.5176 66.1054 7.68471 65.9489 7.81165C65.7817 7.94494 65.4965 8.00632 65.087 8.00632H64.088V6.60363H64.9305ZM65.5973 12.7729C66.2255 12.7729 66.6671 12.7433 66.9265 12.6883C67.1817 12.6291 67.4454 12.536 67.7134 12.4133C67.9749 12.2779 68.1764 12.151 68.3093 12.0113C68.5152 11.823 68.6674 11.5945 68.7788 11.3194C68.8903 11.0423 68.9461 10.7292 68.9461 10.3928C68.9461 9.91254 68.826 9.51688 68.5816 9.1953C68.3372 8.8716 68.0092 8.65793 67.5954 8.54157C68.2965 8.10574 68.646 7.54298 68.646 6.8575C68.646 6.14874 68.3372 5.6071 67.7262 5.23897C67.2545 4.95546 66.5192 4.8116 65.5223 4.8116H61.5195V12.7729H65.5973ZM65.1706 9.43864C65.6959 9.43864 66.0368 9.50209 66.2083 9.63538C66.367 9.76443 66.4527 9.94214 66.4527 10.1812C66.4527 10.4224 66.3669 10.6128 66.1933 10.7461C66.0282 10.8879 65.683 10.9471 65.1706 10.9471H64.088V9.43864H65.1706Z" fill="white"/>
<path id="path1570" d="M74.7754 10.0966H73.0882L73.92 7.20021L74.7754 10.0966ZM72.295 12.7729L72.6016 11.7278H75.2429L75.5516 12.7729H78.1908L75.2964 4.8116H72.6016L69.7051 12.7729H72.295Z" fill="white"/>
<path id="path1572" d="M79.3047 12.7729V4.8116H81.7767L84.5659 9.07475V4.8116H87.1086V12.7729H84.5831L81.8538 8.61563V12.7729H79.3047Z" fill="white"/>
<path id="path1574" d="M88.877 12.7729V4.8116H91.4475V7.43717L93.8466 4.8116H96.9639L94.0074 7.80952L97.2704 12.7729H94.0932L92.1529 9.60154L91.4475 10.2891V12.7729H88.877Z" fill="white"/>
<path id="path1576" d="M0.380859 0.379469H17.4315V17.2056H0.380859V0.379469Z" fill="#ED232A"/>
<path id="path1578" d="M3.36523 3.32454H14.4494V14.2627H3.36523V3.32454Z" fill="white"/>
<path id="path1580" d="M8.05469 0.379469H9.75907V17.2056H8.05469V0.379469Z" fill="white"/>
<path id="path1582" d="M0.380859 7.9538H17.4315V9.63574H0.380859V7.9538Z" fill="white"/>
<path id="path1584" d="M6.34961 6.2698H11.465V11.3179H6.34961V6.2698Z" fill="#004C8F"/>
</g>
</g>
</g>
<defs>
<clipPath id="clip0_1091_47003">
<rect width="102.975" height="17.581" fill="white"/>
</clipPath>
</defs>
</svg>
