<svg width="19" height="18" viewBox="0 0 19 18" fill="none" xmlns="http://www.w3.org/2000/svg">
<g id="hotel" clip-path="url(#clip0_1171_7927)">
<path id="Vector" d="M5.75 9.75C6.995 9.75 8 8.745 8 7.5C8 6.255 6.995 5.25 5.75 5.25C4.505 5.25 3.5 6.255 3.5 7.5C3.5 8.745 4.505 9.75 5.75 9.75ZM14.75 5.25H10.25C9.425 5.25 8.75 5.925 8.75 6.75V10.5H2.75V4.5C2.75 4.0875 2.4125 3.75 2 3.75C1.5875 3.75 1.25 4.0875 1.25 4.5V14.25C1.25 14.6625 1.5875 15 2 15C2.4125 15 2.75 14.6625 2.75 14.25V12.75H16.25V14.25C16.25 14.6625 16.5875 15 17 15C17.4125 15 17.75 14.6625 17.75 14.25V8.25C17.75 6.5925 16.4075 5.25 14.75 5.25Z" fill="#344054"/>
</g>
<defs>
<clipPath id="clip0_1171_7927">
<rect width="18" height="18" fill="white" transform="translate(0.5)"/>
</clipPath>
</defs>
</svg>
