<svg width="100" height="21" viewBox="0 0 100 21" fill="none" xmlns="http://www.w3.org/2000/svg">
<g id="ICICI_Bank_Logo" clip-path="url(#clip0_1091_46985)">
<g id="layer1">
<g id="g651">
<path id="path150" d="M18.2617 19.7047H21.6268L24.2649 9.87305H20.9344L18.2617 19.7047Z" fill="#004A7F"/>
<path id="path152" d="M35.5156 19.7047H38.8808L41.5188 9.87305H38.1537L35.5156 19.7047Z" fill="#004A7F"/>
<path id="path154" d="M52.7988 19.7047H56.131L58.7377 9.87305H55.3725L52.7988 19.7047Z" fill="#004A7F"/>
<path id="path156" d="M32.3819 13.2382H35.747C36.2087 11.0289 34.7908 9.90771 31.4916 9.90771C27.6648 9.90771 25.0927 11.7873 24.2023 14.9876C23.4423 17.9554 24.9937 19.7377 28.588 19.7377C32.217 19.7377 34.3604 18.6165 35.2524 16.0758H31.8872C31.3926 17.1969 30.5353 17.7575 29.3481 17.7575C27.7307 17.7575 27.0712 16.7682 27.5658 14.8886C28.0934 12.9415 29.3481 11.8533 30.9639 11.8533C32.0191 11.8533 32.4808 12.3149 32.3819 13.2382Z" fill="#004A7F"/>
<path id="path158" d="M49.6665 13.2382H53.0316C53.4933 11.0289 52.0407 9.90771 48.7415 9.90771C44.9477 9.90771 42.3427 11.7873 41.4853 14.9876C40.6939 17.9554 42.2437 19.7377 45.8397 19.7377C49.4357 19.7377 51.5791 18.6165 52.5024 16.0758H49.1389C48.6756 17.1969 47.7852 17.7575 46.5981 17.7575C44.9823 17.7575 44.3228 16.7682 44.8488 14.8886C45.3451 12.9415 46.5981 11.8533 48.2139 11.8533C49.2708 11.8533 49.7654 12.3149 49.6665 13.2382Z" fill="#004A7F"/>
<path id="path160" d="M5.29832 4.43213C9.78463 -0.021205 15.2272 -1.17699 17.4053 1.8584C19.5833 4.89378 17.6691 11.0289 13.1827 15.4822C8.69644 19.9685 3.25385 21.1226 1.04285 18.0543C-1.10056 14.9876 0.813663 8.88381 5.29832 4.43213Z" fill="#F06321"/>
<path id="path162" d="M8.2676 2.05613C7.77297 2.41886 7.27834 2.84754 6.78371 3.31084C2.85798 7.20195 1.20755 12.5456 3.15476 15.2183C5.16625 17.8893 9.98231 16.9 14.007 12.9743C16.185 10.8639 17.6359 8.42204 18.2295 6.14673C18.3943 4.46499 18.1636 2.97944 17.4051 1.85828C15.6904 -0.515952 11.9955 -0.31975 8.2676 2.05613Z" fill="#AE282E"/>
<path id="path164" d="M13.9413 2.55099V2.64992C13.9084 3.2105 13.5786 3.90298 12.985 4.49654C12.0947 5.3539 10.9076 5.68366 10.4113 5.19067C9.8507 4.66307 10.1821 3.50728 11.0724 2.58397C11.9958 1.69363 13.1829 1.39685 13.6775 1.92446C13.8424 2.08934 13.9413 2.28719 13.9413 2.55099ZM10.5119 17.6917C8.39977 19.2745 6.2234 20.0675 4.11133 19.7378C5.00166 19.7708 5.72876 18.7798 6.32232 17.4608C6.91588 16.1088 7.24563 14.8558 7.5424 13.667C7.97109 11.7874 8.00407 10.4684 7.77324 10.1716C7.41051 9.70831 6.6191 9.80888 5.69414 10.3365C5.23248 10.6003 4.63893 10.4354 5.33306 9.57806C6.05852 8.7207 8.86143 6.67457 9.85069 6.34481C10.9735 6.04804 12.2266 6.47672 11.7979 7.69681C11.4995 8.58715 7.60837 18.7469 10.5119 17.6917Z" fill="white"/>
<path id="path166" d="M63.7851 18.1534L64.5436 15.3175H66.3902V13.8006H64.9722L65.6318 11.3918H66.3902V9.90625H63.8824L61.2773 19.7379H66.3902V18.1534H63.7851ZM66.3902 15.3175H66.7529C68.4363 15.3175 69.2277 15.6143 68.898 16.7684C68.6342 17.7907 67.8098 18.1534 66.3902 18.1534V19.7379C67.7768 19.7379 68.799 19.606 69.8213 18.9118C70.5138 18.4502 71.01 17.7577 71.2079 16.9663C71.569 15.6143 70.9754 14.6893 69.4256 14.4931C70.8765 14.2293 71.8015 13.4692 72.0966 12.2821C72.3604 11.3918 72.1295 10.7323 71.503 10.3036C70.9754 9.94088 70.0851 9.90625 68.898 9.90625H66.3902V11.3918H67.6779C69.2607 11.3918 69.9862 11.5896 69.7553 12.5789C69.4585 13.5352 68.6012 13.8006 66.9854 13.8006H66.3902V15.3175Z" fill="#004A7F"/>
<path id="path168" d="M75.6266 12.844V14.0624C75.3628 14.196 75.132 14.4268 75.0331 14.7566H73.0546C73.3827 13.8003 74.2746 13.1391 75.6266 12.844ZM75.6266 18.6163C75.3958 18.6823 75.132 18.7153 74.8682 18.7153C73.9779 18.7153 73.5822 18.3509 73.78 17.6914C73.9779 16.933 74.5714 16.6691 75.6266 16.5702V15.4161C73.3497 15.581 72.0966 16.1745 71.7009 17.6584C71.3382 19.0104 72.1972 19.9024 73.9779 19.9024C74.5714 19.9024 75.132 19.8035 75.6266 19.6056V18.6163ZM77.5409 16.5702L77.5078 16.6691C77.244 17.6914 76.55 18.3855 75.6266 18.6163V19.6056C76.1213 19.4061 76.5499 19.144 76.9456 18.7812L76.7808 19.7375H78.7609C78.8599 19.2742 78.9588 18.7466 79.0907 18.219L79.8491 15.4491C79.915 15.2182 79.9481 14.9874 79.9481 14.7566V14.4268C79.8821 13.304 78.9258 12.7104 77.1451 12.7104C76.5829 12.7104 76.0883 12.7764 75.6266 12.844V14.0624C75.9234 13.8992 76.2861 13.8333 76.7494 13.8333C77.77 13.8333 78.1674 14.2933 77.869 15.2842L77.8376 15.3831H76.7807C76.3867 15.3831 75.9894 15.4161 75.6266 15.4161V16.5702L77.5409 16.5702Z" fill="#004A7F"/>
<path id="path170" d="M80.541 19.7375H82.5542L83.5104 16.2075C83.8402 14.9544 84.9943 14.0624 86.2144 14.0624C87.4015 14.0624 87.8319 14.7566 87.4362 16.1415L86.4782 19.7375H88.4914L89.6126 15.548C90.0742 13.7673 89.1839 12.7104 87.2054 12.7104C85.9177 12.7104 84.8954 13.1721 84.0051 14.0954L84.2359 12.8753H82.2244C82.0266 13.9635 81.8947 14.6247 81.827 14.8885L80.541 19.7375Z" fill="#004A7F"/>
<path id="path172" d="M90.2734 19.7377H92.2536L93.2429 16.0428L95.9155 19.7377H98.6525L95.6171 15.812L99.7077 12.8755H97.1686L93.3748 15.6141L94.8916 9.90771H92.9131L90.2734 19.7377Z" fill="#004A7F"/>
</g>
</g>
</g>
<defs>
<clipPath id="clip0_1091_46985">
<rect width="99.8719" height="20.067" fill="white"/>
</clipPath>
</defs>
</svg>
