<svg width="62" height="21" viewBox="0 0 62 21" fill="none" xmlns="http://www.w3.org/2000/svg">
<g id="Kotak_Mutual_Fund_logo" clip-path="url(#clip0_1091_47024)">
<g id="layer1">
<g id="g35952">
<path id="path33079" fill-rule="evenodd" clip-rule="evenodd" d="M36.609 9.68003C35.4928 9.68003 35.0354 8.78832 35.0354 7.79317C35.0354 6.7854 35.4928 5.89337 36.609 5.89337C37.7258 5.89337 38.1825 6.7854 38.1825 7.79317C38.1825 8.78832 37.7258 9.68003 36.609 9.68003ZM36.609 11.3076C38.9223 11.3076 40.6837 10.015 40.6837 7.79317C40.6837 5.5584 38.9223 4.26611 36.609 4.26611C34.2952 4.26611 32.5332 5.5584 32.5332 7.79317C32.5332 10.015 34.2952 11.3076 36.609 11.3076Z" fill="#ED3338"/>
<path id="path33081" fill-rule="evenodd" clip-rule="evenodd" d="M40.4609 6.04879H41.846V8.78824C41.846 10.3906 42.3714 11.3075 44.5364 11.3075C45.1419 11.3075 45.5996 11.2296 46.0564 11.1785L45.9766 9.6667C45.733 9.70577 45.4775 9.75691 45.2361 9.75691C44.47 9.75691 44.2678 9.34307 44.2678 8.52928V6.04879H45.9632V4.42091H44.2678L44.2668 2.09277L41.8871 2.90909V4.42091H40.461L40.4609 6.04879Z" fill="#ED3338"/>
<path id="path33083" fill-rule="evenodd" clip-rule="evenodd" d="M54.4356 11.1524H56.857V7.81843H56.8839L58.8206 11.1524H61.753L59.1168 7.50899L61.5507 4.42069H58.9014L56.8839 7.25003H56.857V2.10107L54.4355 2.90667L54.4356 11.1524Z" fill="#ED3338"/>
<path id="path33085" fill-rule="evenodd" clip-rule="evenodd" d="M26.0859 11.1524H28.5077V7.81843H28.5333L30.471 11.1524H33.403L30.7675 7.50899L33.2014 4.42069H30.5518L28.5333 7.25003H28.5077V2.10107L26.086 2.86787L26.0859 11.1524Z" fill="#ED3338"/>
<path id="path33087" fill-rule="evenodd" clip-rule="evenodd" d="M48.6348 9.02645C48.6348 8.37321 49.2889 8.12466 50.1187 8.12466C50.4864 8.12466 50.8404 8.15112 51.1534 8.16409C51.1534 8.96211 50.5685 9.77243 49.6422 9.77243C49.0712 9.77243 48.6348 9.498 48.6348 9.02645ZM53.5767 11.1846C53.4681 10.6487 53.4405 10.1118 53.4405 9.57591V7.03929C53.4405 4.95971 51.8745 4.21436 50.0648 4.21436C49.016 4.21436 48.1034 4.3585 47.2326 4.69853L47.273 6.29364C47.9547 5.92774 48.7438 5.78422 49.5329 5.78422C50.4188 5.78422 51.1399 6.03182 51.1534 6.96043C50.8404 6.90839 50.405 6.86895 50.01 6.86895C48.7027 6.86895 46.3477 7.11814 46.3477 9.19677C46.3477 10.6748 47.6007 11.3413 49.0025 11.3413C50.01 11.3413 50.6907 10.9622 51.2486 10.1118H51.2765C51.2765 10.4657 51.3159 10.8184 51.3307 11.1846H53.5767Z" fill="#ED3338"/>
<path id="path33089" d="M56.7348 16.4428C56.7329 16.3233 56.7422 16.2038 56.7614 16.0836C56.7788 15.9628 56.8087 15.8473 56.8514 15.7382C56.8928 15.6297 56.9499 15.5319 57.0208 15.4477C57.0931 15.3618 57.1831 15.2934 57.2898 15.2452C57.3978 15.1954 57.5265 15.1698 57.6746 15.1698C57.8145 15.1698 57.9367 15.1963 58.0398 15.2483C58.1445 15.2997 58.2338 15.3701 58.3067 15.4571C58.3803 15.5451 58.4388 15.6451 58.4854 15.7542C58.5294 15.8643 58.5632 15.9785 58.5842 16.0974C58.6049 16.2141 58.6148 16.3302 58.6148 16.4428C58.6148 16.5551 58.6049 16.6702 58.5842 16.7885C58.5632 16.9074 58.5294 17.021 58.4854 17.1317C58.4388 17.2408 58.3803 17.3408 58.3067 17.4285C58.2339 17.5159 58.1445 17.5862 58.0398 17.6376C57.9367 17.6881 57.8145 17.7152 57.6746 17.7168C57.5265 17.715 57.3978 17.6903 57.2898 17.6404C57.1831 17.5921 57.0931 17.524 57.0208 17.4388C56.9499 17.354 56.8928 17.2553 56.8514 17.1461C56.8087 17.0376 56.7788 16.9231 56.7614 16.8033C56.7427 16.6822 56.7332 16.5624 56.7348 16.4428ZM59.0061 13.4829H58.6147V15.4325H58.6023C58.5908 15.4013 58.5707 15.3619 58.5376 15.3143C58.5057 15.2666 58.464 15.2152 58.4095 15.1613C58.356 15.1076 58.29 15.0575 58.2141 15.0099C58.1372 14.9622 58.0493 14.9234 57.9491 14.8932C57.8493 14.8632 57.7373 14.8471 57.6132 14.8461C57.3791 14.847 57.1794 14.8872 57.0139 14.9651C56.8497 15.0436 56.7128 15.1543 56.6094 15.2966C56.5049 15.4388 56.4278 15.6079 56.3785 15.8019C56.3295 15.9962 56.3053 16.2097 56.3053 16.4428C56.3053 16.6702 56.3322 16.88 56.3874 17.0737C56.4409 17.2658 56.523 17.4351 56.6323 17.5802C56.742 17.724 56.8776 17.8357 57.0418 17.9171C57.2037 17.9978 57.3945 18.0388 57.6132 18.0395C57.8394 18.0401 58.0351 17.9963 58.1993 17.907C58.3635 17.818 58.4978 17.6764 58.6022 17.4837H58.6147V17.9676H59.0061L59.0061 13.4829ZM53.0314 17.9676H53.4231V16.2817C53.4231 16.1788 53.4325 16.0747 53.453 15.9707C53.4724 15.8659 53.5042 15.7666 53.5483 15.6707C53.5926 15.5745 53.6504 15.4896 53.7239 15.4146C53.7952 15.3386 53.8848 15.2796 53.9906 15.2367C54.0976 15.1925 54.2208 15.1698 54.3633 15.1698C54.5426 15.1698 54.6887 15.2095 54.799 15.2871C54.9103 15.3641 54.9911 15.4735 55.0427 15.6136C55.0926 15.7549 55.1175 15.9218 55.1162 16.1135V17.9676H55.5086V16.0183C55.5086 15.8505 55.4895 15.694 55.4498 15.5533C55.4098 15.4105 55.3473 15.2871 55.2623 15.1815C55.1759 15.0752 55.064 14.9944 54.9251 14.9351C54.7881 14.8771 54.6216 14.8471 54.4256 14.8462C54.2617 14.847 54.1219 14.867 54.0056 14.9042C53.889 14.9407 53.7915 14.9903 53.7137 15.0509C53.6352 15.1117 53.5718 15.1786 53.5203 15.2499C53.4713 15.3215 53.43 15.3928 53.3985 15.4625H53.386V14.9181H53.0064C53.0189 15.0407 53.0257 15.1612 53.0281 15.2811C53.0318 15.4 53.0327 15.5186 53.0318 15.6359L53.0314 17.9676ZM52.0483 14.9181H51.6562V16.6043C51.6562 16.7072 51.6469 16.8112 51.6263 16.9153C51.6066 17.0194 51.5754 17.1197 51.5311 17.2153C51.4864 17.3115 51.428 17.397 51.3564 17.4714C51.2835 17.5474 51.1945 17.6061 51.0887 17.6493C50.983 17.6935 50.8586 17.7152 50.7164 17.7168C50.5364 17.7151 50.3913 17.6764 50.28 17.5989C50.1693 17.5219 50.0885 17.4125 50.038 17.2724C49.9864 17.1311 49.9621 16.9642 49.9627 16.7715V14.9181H49.5713V16.8677C49.5713 17.0365 49.59 17.191 49.6291 17.3326C49.6695 17.4746 49.7322 17.5989 49.8183 17.7045C49.9036 17.8102 50.015 17.8916 50.1542 17.9509C50.2911 18.0089 50.4576 18.0389 50.6533 18.0395C50.8175 18.0388 50.9571 18.019 51.0746 17.9817C51.1902 17.9452 51.2874 17.8956 51.3656 17.8341C51.4434 17.7732 51.5074 17.7073 51.5586 17.6354C51.6083 17.5638 51.6489 17.4931 51.6805 17.4234H51.6929V17.9675H52.0725C52.0614 17.8442 52.0545 17.724 52.0512 17.6048C52.0494 17.4859 52.0484 17.367 52.0484 17.2496L52.0483 14.9181ZM46.7943 17.9676H47.2238V16.0009H48.7862V15.642H47.2238V14.1526H48.8608V13.7939H46.7943V17.9676ZM43.6941 17.9676H44.0869V13.4829H43.6941V17.9676ZM42.3685 16.616C42.3692 16.6845 42.3666 16.7643 42.359 16.8567C42.3525 16.9504 42.3337 17.0459 42.3038 17.1456C42.2726 17.2453 42.2247 17.3377 42.158 17.4235C42.0897 17.5102 41.9978 17.5803 41.8799 17.6339C41.763 17.6875 41.6119 17.7146 41.4284 17.7169C41.3075 17.7177 41.1962 17.6992 41.0967 17.6626C40.9982 17.6266 40.9187 17.568 40.8596 17.4875C40.8012 17.4068 40.7693 17.2989 40.7687 17.1667C40.7694 17.0333 40.8005 16.922 40.8577 16.8324C40.9174 16.7438 40.9959 16.6728 41.0967 16.6185C41.1975 16.5649 41.3124 16.5236 41.4395 16.4974C41.5676 16.47 41.7016 16.4516 41.8415 16.4429C41.9814 16.4334 42.1196 16.4299 42.2565 16.4305H42.3685L42.3685 16.616ZM42.4063 17.9676H42.7921C42.7816 17.8979 42.7747 17.8298 42.7711 17.7638C42.7664 17.6967 42.7636 17.6266 42.7609 17.5563C42.7602 17.4859 42.7602 17.409 42.7602 17.3276V15.9823C42.7609 15.7183 42.7231 15.5023 42.6466 15.3348C42.5681 15.1676 42.4479 15.0436 42.2837 14.9645C42.1195 14.8853 41.9068 14.8459 41.6467 14.8462C41.5764 14.8462 41.4992 14.8533 41.4158 14.8632C41.3337 14.8742 41.2497 14.8887 41.1666 14.9086C41.0815 14.9284 40.9995 14.9505 40.9216 14.9748C40.8428 15.0004 40.7735 15.0269 40.7128 15.0562V15.4205C40.8589 15.3319 41.0096 15.2672 41.1666 15.2272C41.3213 15.1881 41.4812 15.1681 41.6467 15.1698C41.8214 15.1698 41.9632 15.1984 42.0683 15.2568C42.1744 15.3152 42.2512 15.4029 42.2998 15.518C42.3465 15.6347 42.3691 15.7792 42.3684 15.953V16.1079H42.2942C42.1557 16.1072 42.0118 16.1096 41.8644 16.1159C41.715 16.123 41.5675 16.137 41.4221 16.1576C41.2763 16.1796 41.1377 16.214 41.0083 16.2594C40.8796 16.3055 40.763 16.3683 40.6635 16.4474C40.5634 16.5244 40.4843 16.6247 40.4278 16.7436C40.3693 16.8632 40.3401 17.0092 40.3394 17.1786C40.3385 17.2341 40.3459 17.2994 40.3611 17.3735C40.3762 17.4476 40.4061 17.5234 40.4471 17.5994C40.4895 17.678 40.5489 17.7492 40.6267 17.8151C40.7052 17.8816 40.8067 17.9359 40.9292 17.9763C41.0536 18.0173 41.2053 18.0387 41.3853 18.0394C41.4841 18.0394 41.583 18.0268 41.6838 18.0019C41.7836 17.9785 41.8798 17.9426 41.9714 17.8949C42.0621 17.8479 42.1445 17.7889 42.2184 17.7199C42.2906 17.6486 42.3484 17.5685 42.3937 17.477H42.4062L42.4063 17.9676ZM39.5984 14.9181H39.2066V16.6043C39.2066 16.7072 39.1973 16.8112 39.1778 16.9153C39.1574 17.0194 39.1255 17.1197 39.0829 17.2153C39.0373 17.3115 38.9788 17.397 38.9072 17.4714C38.8339 17.5474 38.745 17.6061 38.6396 17.6493C38.5338 17.6935 38.4094 17.7152 38.2665 17.7168C38.0872 17.7151 37.9418 17.6764 37.8308 17.5989C37.7201 17.5219 37.6387 17.4125 37.5881 17.2724C37.5372 17.1311 37.5123 16.9642 37.5136 16.7715V14.9181H37.1215V16.8677C37.1215 17.0365 37.1408 17.191 37.1799 17.3326C37.22 17.4746 37.2827 17.5989 37.3688 17.7045C37.4538 17.8102 37.5671 17.8916 37.7047 17.9509C37.8419 18.0089 38.0081 18.0389 38.2041 18.0395C38.3683 18.0388 38.5079 18.019 38.6251 17.9817C38.741 17.9452 38.8386 17.8956 38.9161 17.8341C38.9955 17.7732 39.0579 17.7073 39.1095 17.6354C39.1587 17.5638 39.1998 17.4931 39.2313 17.4234H39.2438V17.9675H39.6234C39.6122 17.8442 39.6046 17.724 39.6017 17.6048C39.5998 17.4859 39.5979 17.367 39.5979 17.2496L39.5984 14.9181ZM36.4177 14.9181H35.6963V14.0513L35.3042 14.1825V14.9181H34.6813V15.2408H35.3042V17.0232C35.3015 17.1623 35.307 17.2935 35.3184 17.4162C35.3298 17.5396 35.3584 17.6465 35.4038 17.7395C35.4481 17.8326 35.5206 17.9061 35.6192 17.9591C35.718 18.0117 35.853 18.0388 36.0254 18.0395C36.0913 18.0395 36.1538 18.0342 36.2145 18.0251C36.2759 18.0161 36.3314 18.0067 36.383 17.9935C36.4322 17.9803 36.4726 17.9677 36.5051 17.9559L36.4802 17.6453C36.4247 17.6655 36.3702 17.6841 36.3133 17.6967C36.2579 17.7096 36.1928 17.7169 36.1193 17.7169C36.0142 17.7151 35.9301 17.6929 35.8684 17.6478C35.8063 17.6026 35.762 17.5421 35.7348 17.4661C35.7085 17.3913 35.695 17.3068 35.6963 17.2144V15.2408H36.4178L36.4177 14.9181ZM34.0646 14.9181H33.6729V16.6043C33.6729 16.7072 33.6634 16.8112 33.6436 16.9153C33.6243 17.0194 33.5914 17.1197 33.5484 17.2153C33.5041 17.3115 33.4457 17.397 33.3731 17.4714C33.3002 17.5474 33.2106 17.6061 33.1051 17.6493C32.9991 17.6935 32.8766 17.7152 32.7321 17.7168C32.5528 17.7151 32.408 17.6764 32.2977 17.5989C32.1863 17.5219 32.1056 17.4125 32.0547 17.2724C32.0041 17.1311 31.9785 16.9642 31.9792 16.7715V14.9181H31.5874V16.8677C31.5874 17.0365 31.6072 17.191 31.6476 17.3326C31.6863 17.4746 31.7497 17.5989 31.8357 17.7045C31.9208 17.8102 32.0327 17.8916 32.1703 17.9509C32.3086 18.0089 32.4751 18.0389 32.6711 18.0395C32.8343 18.0388 32.9752 18.019 33.0911 17.9817C33.207 17.9452 33.3045 17.8956 33.3824 17.8341C33.4615 17.7732 33.5249 17.7073 33.5751 17.6354C33.6257 17.5638 33.6654 17.4931 33.6986 17.4234H33.7108V17.9675H34.0904C34.0792 17.8442 34.0717 17.724 34.0687 17.6048C34.065 17.4859 34.065 17.367 34.065 17.2496L34.0646 14.9181ZM26.0977 17.9676H26.5272V14.2068H26.5396L28.1703 17.9676H28.5375L30.1189 14.2068H30.1307V17.9676H30.5599V13.7939H29.9442L28.3506 17.4651L26.7636 13.7939H26.0977V17.9676Z" fill="#1F4578"/>
<path id="path33091" fill-rule="evenodd" clip-rule="evenodd" d="M0.246094 10.0662C0.246094 4.67403 5.53684 0.303223 12.0642 0.303223C18.5919 0.303223 23.8827 4.67403 23.8827 10.0662C23.8827 15.459 18.5919 19.8301 12.0642 19.8301C5.53684 19.8301 0.246094 15.459 0.246094 10.0662Z" fill="#1F4578"/>
<path id="path33093" fill-rule="evenodd" clip-rule="evenodd" d="M10.629 3.43792L13.3742 2.56641L13.3876 16.8248L10.6191 17.7158L10.629 3.43792Z" fill="#ED3338"/>
<path id="path33095" fill-rule="evenodd" clip-rule="evenodd" d="M12.2602 12.3301C11.0669 13.711 9.91362 15.1228 7.75325 15.1228C4.70136 15.1228 3.25586 12.2891 3.25586 9.91996C3.25586 7.64387 4.38644 4.94922 7.35789 4.94922C8.64741 4.94922 9.88997 5.70685 10.6285 6.50771L10.6266 8.4403C10.0093 8.04034 8.62452 7.64797 7.72051 7.63409C5.83565 7.60351 4.17311 8.38795 4.20298 10.1754C4.22235 11.4059 5.49086 12.243 6.75378 12.243C8.68822 12.243 9.8592 10.5458 10.8391 9.25726C11.1119 8.92102 11.883 7.93122 12.0028 7.77288C13.0907 6.31341 14.3497 4.97981 16.5097 4.97981C19.0536 4.97981 20.4817 6.95056 20.8863 8.97905H19.739C19.2773 8.32139 18.3887 7.91892 17.5122 7.91892C15.5131 7.91892 14.3188 9.68528 13.3196 10.9858C13.3196 10.9858 12.5416 12.0046 12.2602 12.3301ZM20.9528 11.0501C20.6951 13.09 19.5047 15.1493 16.9037 15.1538C15.3863 15.1564 14.1995 14.1576 13.3776 12.936V11.5214C14.4061 12.0118 15.3666 12.5367 16.5323 12.5537C17.9679 12.5742 19.266 12.0434 19.8029 11.0501H20.9528Z" fill="white"/>
</g>
</g>
</g>
<defs>
<clipPath id="clip0_1091_47024">
<rect width="62" height="20" fill="white" transform="translate(0 0.0668945)"/>
</clipPath>
</defs>
</svg>
