<svg width="43" height="43" viewBox="0 0 43 43" fill="none" xmlns="http://www.w3.org/2000/svg">
<g id="like">
<g id="vuesax/bulk/like">
<g id="like_2">
<path id="Vector" opacity="0.4" d="M38.4983 18.1024C37.8049 17.1069 36.5783 16.538 35.1738 16.538H27.8849C27.4049 16.538 26.9605 16.3424 26.6583 15.9869C26.3383 15.6313 26.2138 15.1336 26.2849 14.618L27.1916 8.78689C27.5827 7.04466 26.4272 5.08911 24.6849 4.50244C23.0672 3.898 21.1649 4.71578 20.4005 5.87133L12.8983 17.018L12.6849 17.3736V33.0891L12.9516 33.3558L18.5872 37.7113C19.3338 38.458 21.0227 38.8669 22.2138 38.8669H29.1472C31.5294 38.8669 33.9294 37.0713 34.4627 34.8847L38.836 21.5691C39.2983 20.3069 39.1738 19.0802 38.4983 18.1024Z" fill="#0088FF"/>
<path id="Vector_2" d="M9.27161 11.6138H7.4405C4.68494 11.6138 3.56494 12.6804 3.56494 15.3115V33.196C3.56494 35.8271 4.68494 36.8938 7.4405 36.8938H9.27161C12.0272 36.8938 13.1472 35.8271 13.1472 33.196V15.3115C13.1472 12.6804 12.0272 11.6138 9.27161 11.6138Z" fill="#0088FF"/>
</g>
</g>
</g>
</svg>
