<svg width="44" height="43" viewBox="0 0 44 43" fill="none" xmlns="http://www.w3.org/2000/svg">
<g id="location">
<g id="vuesax/bulk/location">
<g id="location_2">
<path id="Vector" opacity="0.4" d="M37.3268 15.2939C35.4601 7.08059 28.2957 3.38281 22.0023 3.38281C22.0023 3.38281 22.0023 3.38281 21.9845 3.38281C15.709 3.38281 8.52677 7.06281 6.6601 15.2761C4.5801 24.4495 10.1979 32.2184 15.2823 37.1073C17.1668 38.9206 19.5845 39.8273 22.0023 39.8273C24.4201 39.8273 26.8379 38.9206 28.7045 37.1073C33.789 32.2184 39.4068 24.4673 37.3268 15.2939Z" fill="#0088FF"/>
<path id="Vector_2" d="M22.0022 24.2005C25.095 24.2005 27.6022 21.6933 27.6022 18.6005C27.6022 15.5077 25.095 13.0005 22.0022 13.0005C18.9094 13.0005 16.4022 15.5077 16.4022 18.6005C16.4022 21.6933 18.9094 24.2005 22.0022 24.2005Z" fill="#0088FF"/>
</g>
</g>
</g>
</svg>
