<svg width="43" height="44" viewBox="0 0 43 44" fill="none" xmlns="http://www.w3.org/2000/svg">
<g id="map">
<g id="vuesax/bulk/map">
<g id="map_2">
<path id="Vector" opacity="0.4" d="M15.2348 6.80518V32.2807C14.6304 32.2985 14.0259 32.4407 13.5815 32.7074L9.40369 35.0896C6.48814 36.7607 4.08813 35.3741 4.08813 31.9963V14.6985C4.08813 13.5785 4.88813 12.1918 5.88369 11.623L13.5815 7.21406C14.0259 6.96518 14.6304 6.82295 15.2348 6.80518Z" fill="#0088FF"/>
<path id="Vector_2" d="M27.9814 12.1207V37.5962C27.3592 37.614 26.7547 37.5073 26.2747 37.2762L16.9414 32.6007C16.4614 32.3696 15.857 32.2629 15.2347 32.2807V6.80513C15.857 6.78735 16.4614 6.89402 16.9414 7.12513L26.2747 11.8007C26.7547 12.0318 27.3592 12.1385 27.9814 12.1207Z" fill="#0088FF"/>
<path id="Vector_3" opacity="0.4" d="M39.1281 12.4048V29.7026C39.1281 30.8226 38.3281 32.2093 37.3326 32.7781L29.6348 37.187C29.1903 37.4359 28.5859 37.5781 27.9814 37.5959V12.1204C28.5859 12.1026 29.1903 11.9604 29.6348 11.6937L33.8126 9.31148C36.7281 7.64036 39.1281 9.02703 39.1281 12.4048Z" fill="#0088FF"/>
</g>
</g>
</g>
</svg>
