<svg width="58" height="21" viewBox="0 0 58 21" fill="none" xmlns="http://www.w3.org/2000/svg">
<g id="SBI_new_logo">
<path id="Vector" d="M34.4461 10.4569C33.4442 9.6367 32.1492 9.10622 31.0067 8.64034C29.4306 7.99437 28.0684 7.4404 28.0684 6.40881C28.0684 5.95859 28.2822 5.54556 28.6703 5.24607C29.0782 4.93287 29.6484 4.7567 30.2741 4.7567C32.2462 4.7567 33.8184 6.13672 33.8323 6.14651L34.2164 6.49494L35.9628 3.25726L35.7628 3.04781C35.6856 2.96952 33.8481 1.09033 30.2979 1.09033C28.597 1.09033 27.0308 1.62864 25.8903 2.60542C25.3246 3.07915 24.8704 3.66937 24.5595 4.3348C24.2486 5.00022 24.0885 5.72477 24.0905 6.45775C24.0905 7.91216 24.6627 9.0886 25.8349 10.0536C26.821 10.864 28.0506 11.3867 29.2406 11.8937C30.8602 12.5847 32.2621 13.1817 32.2621 14.2427C32.2621 15.0531 31.7077 15.9183 30.1534 15.9183C27.9238 15.9183 26.1339 14.2407 26.118 14.2231L25.7814 13.9021L23.6113 16.8774L23.8291 17.1162C23.8529 17.1397 24.4132 17.7524 25.4686 18.3632C26.8768 19.1696 28.4764 19.5918 30.1039 19.5866C31.9235 19.5866 33.4739 19.0346 34.5886 17.9912C35.638 17.0105 36.2142 15.654 36.2142 14.1741C36.2142 12.6473 35.6361 11.4337 34.4461 10.4569ZM52.797 19.3184H56.866V1.35851H52.799L52.797 19.3184ZM44.8472 15.9555H41.7484V4.7195H44.4789C45.7025 4.7195 46.4035 5.39679 46.4035 6.57716C46.4035 7.76926 45.7738 8.37217 44.5264 8.37217H43.5859V11.6803H44.8452C45.5323 11.6803 46.1065 11.8917 46.5025 12.295C46.6985 12.4806 46.8521 12.7055 46.9529 12.9547C47.0536 13.2039 47.0992 13.4715 47.0866 13.7396C47.0866 15.1098 46.2292 15.9574 44.8452 15.9574M50.2467 11.2497C49.8509 10.6304 49.2943 10.1275 48.635 9.7933C49.6943 8.95354 50.2942 7.66551 50.2942 6.19153C50.2942 4.70384 49.72 3.4628 48.635 2.59955C47.6133 1.7872 46.1936 1.35851 44.5264 1.35851H37.9072V19.3184H44.5997C46.3758 19.3184 47.9123 18.876 49.0429 18.0363C50.3239 17.083 51.0031 15.6638 51.0031 13.9314C51.0031 12.9448 50.7417 12.017 50.2467 11.2497Z" fill="#292075"/>
<path id="Vector_2" d="M11.446 1.03564C10.211 1.03693 8.98835 1.27872 7.84787 1.7472C6.7074 2.21568 5.67144 2.90168 4.79917 3.76602C3.92689 4.63035 3.23539 5.6561 2.76416 6.78467C2.29292 7.91324 2.05118 9.12253 2.05274 10.3435C2.05002 12.6446 2.91052 14.865 4.46783 16.5752C6.02514 18.2854 8.16861 19.364 10.4837 19.6024V12.8393C9.97166 12.6463 9.53093 12.3041 9.2198 11.8581C8.90868 11.4121 8.74182 10.8833 8.74129 10.3415C8.74129 8.86753 9.95505 7.66759 11.446 7.66759C12.937 7.66759 14.1507 8.86753 14.1507 10.3415C14.1507 11.4808 13.4241 12.4556 12.4063 12.8393V19.5984C14.7214 19.3601 16.8649 18.2815 18.4222 16.5713C19.9795 14.8611 20.84 12.6407 20.8373 10.3396C20.8389 7.8751 19.8505 5.51087 18.0895 3.76659C16.3284 2.0223 13.9389 1.04072 11.446 1.0376" fill="#00B5EF"/>
</g>
</svg>
